<?xml version="1.0" encoding="iso-8859-1"?>
<!-- Generator: Adobe Illustrator 17.1.0, SVG Export Plug-In . SVG Version: 6.00 Build 0)  -->
<!DOCTYPE svg PUBLIC "-//W3C//DTD SVG 1.1//EN" "http://www.w3.org/Graphics/SVG/1.1/DTD/svg11.dtd">
<svg version="1.1" id="Capa_1" xmlns="http://www.w3.org/2000/svg" xmlns:xlink="http://www.w3.org/1999/xlink" x="0px" y="0px"
	 viewBox="0 0 219.216 219.216" style="enable-background:new 0 0 219.216 219.216;" xml:space="preserve">
<path d="M142.875,76.34c-18.373-18.373-48.162-18.373-66.535,0c-18.373,18.373-18.373,48.162,0,66.535
	c18.373,18.373,48.162,18.373,66.535,0C161.249,124.502,161.249,94.714,142.875,76.34z M126.171,87.388l6.47-6.47
	c1.561-1.562,4.096-1.562,5.656,0c1.563,1.563,1.563,4.095,0,5.657l-6.47,6.47c-0.78,0.781-1.805,1.171-2.828,1.171
	s-2.048-0.391-2.828-1.171C124.608,91.483,124.608,88.951,126.171,87.388z M93.045,131.828l-6.47,6.47
	c-0.78,0.781-1.805,1.171-2.828,1.171s-2.048-0.391-2.828-1.171c-1.563-1.563-1.563-4.095,0-5.657l6.47-6.47
	c1.561-1.562,4.096-1.562,5.656,0C94.607,127.733,94.607,130.265,93.045,131.828z M93.045,93.046
	c-0.78,0.781-1.805,1.171-2.828,1.171s-2.048-0.391-2.828-1.171l-6.47-6.47c-1.563-1.563-1.563-4.095,0-5.657
	c1.561-1.562,4.096-1.562,5.656,0l6.47,6.47C94.607,88.951,94.607,91.483,93.045,93.046z M138.297,138.297
	c-0.78,0.781-1.805,1.171-2.828,1.171s-2.048-0.391-2.828-1.171l-6.47-6.47c-1.563-1.563-1.563-4.095,0-5.657
	c1.561-1.562,4.096-1.562,5.656,0l6.47,6.47C139.859,134.203,139.859,136.735,138.297,138.297z M145.659,109.753l-29.069,3.128
	c-0.358,0.796-0.856,1.545-1.51,2.199c-2.894,2.893-7.585,2.893-10.478,0c-2.894-2.893-2.894-7.585,0-10.478
	c0.066-0.066,0.138-0.123,0.206-0.186l-3.092-21.156c-0.319-2.186,1.193-4.217,3.38-4.537c2.179-0.319,4.217,1.194,4.536,3.379
	L112.685,103c0.87,0.362,1.686,0.893,2.394,1.601c0.116,0.116,0.219,0.239,0.326,0.36l29.399-3.163
	c2.204-0.232,4.169,1.353,4.405,3.549C149.444,107.544,147.855,109.516,145.659,109.753z M216.804,33.769L185.447,2.412
	c-2.776-2.776-7.125-3.207-10.392-1.029L134.38,28.5c-4.324,2.883-4.93,9.001-1.255,12.676l0.238,0.238l-8.459,8.459
	c-4.669-1.127-9.507-1.715-14.442-1.715c-16.575,0-32.202,6.499-44.003,18.3C50.57,82.347,45.034,104.681,49.9,124.877l-8.486,8.486
	l-0.238-0.238c-3.675-3.675-9.793-3.069-12.676,1.255L1.383,175.055c-2.178,3.267-1.747,7.616,1.029,10.392l31.357,31.357
	c2.776,2.776,7.125,3.207,10.392,1.029l40.675-27.116c4.324-2.883,4.93-9.001,1.255-12.676l-0.238-0.238l8.459-8.459
	c4.669,1.127,9.508,1.715,14.443,1.715c16.574,0,32.202-6.499,44.003-18.3c15.889-15.889,21.425-38.224,16.559-58.42l8.486-8.485
	l0.238,0.238c3.675,3.675,9.793,3.069,12.676-1.255l27.116-40.674C220.01,40.895,219.58,36.545,216.804,33.769z M80.196,172.145
	L47.071,139.02l5.58-5.58c2.944,7.262,7.34,14.054,13.206,19.92c5.774,5.774,12.529,10.23,19.896,13.229L80.196,172.145z
	 M147.101,147.101c-10.291,10.29-23.909,15.957-38.347,15.957c-14.113,0-27.339-5.453-37.241-15.355
	C50.841,127.029,51.11,93.12,72.115,72.115c10.29-10.29,23.908-15.957,38.347-15.957c14.112,0,27.339,5.454,37.241,15.355
	C168.376,92.187,168.106,126.096,147.101,147.101z M166.565,85.776c-2.944-7.262-7.34-14.054-13.206-19.92
	c-5.774-5.774-12.529-10.23-19.896-13.229l5.557-5.557l33.125,33.126L166.565,85.776z"/>
<g>
</g>
<g>
</g>
<g>
</g>
<g>
</g>
<g>
</g>
<g>
</g>
<g>
</g>
<g>
</g>
<g>
</g>
<g>
</g>
<g>
</g>
<g>
</g>
<g>
</g>
<g>
</g>
<g>
</g>
</svg>
